<?xml version="1.0" standalone="no"?>
<!DOCTYPE svg PUBLIC "-//W3C//DTD SVG 20010904//EN" "http://www.w3.org/TR/2001/REC-SVG-20010904/DTD/svg10.dtd">
<svg version="1.0" xmlns="http://www.w3.org/2000/svg"
    width="512.000000pt" height="512.000000pt" viewBox="0 0 512.000000 512.000000"
    preserveAspectRatio="xMidYMid meet">
    <metadata> Created by potrace 1.16, written by Peter Selinger 2001-2019 </metadata>
    <g transform="translate(0.000000,512.000000) scale(0.100000,-0.100000)"
        fill="#000000" stroke="none">
        <path
            d="M2511 3220 c-73 -18 -137 -84 -156 -162 -6 -23 -2 -29 24 -43 29 -14
31 -14 31 2 1 37 38 100 72 121 45 28 112 29 156 2 32 -20 71 -86 72 -122 0
-14 4 -15 31 -5 28 11 30 15 25 47 -17 105 -146 187 -255 160z" />
        <path
            d="M2196 2975 c-79 -28 -135 -110 -136 -197 -1 -155 162 -256 300 -185
45 22 45 23 48 79 3 49 -1 63 -25 99 l-28 43 -5 -79 c-5 -72 -7 -81 -30 -92
-89 -45 -211 48 -197 150 10 72 69 129 136 131 39 1 41 2 41 33 0 31 -2 33
-32 33 -18 -1 -50 -7 -72 -15z" />
        <path
            d="M2820 2957 c0 -32 2 -33 42 -34 47 -2 82 -24 116 -73 45 -66 15 -166
-61 -201 -49 -22 -82 -24 -117 -6 -23 11 -25 20 -30 92 l-5 79 -28 -43 c-24
-36 -28 -50 -25 -99 3 -56 3 -57 48 -79 160 -81 330 57 296 240 -14 75 -117
156 -198 157 -36 0 -38 -2 -38 -33z" />
        <path
            d="M2350 2937 c0 -26 22 -66 100 -178 55 -79 105 -144 110 -144 6 0 55
65 111 144 87 125 100 149 97 179 l-3 35 -31 -26 c-16 -14 -61 -71 -99 -126
-38 -56 -71 -101 -74 -101 -3 0 -33 39 -65 87 -63 93 -123 163 -137 163 -5 0
-9 -15 -9 -33z" />
        <path
            d="M1814 2400 c-11 -4 -33 -22 -47 -40 -54 -64 -25 -180 53 -207 60 -21
166 10 140 41 -8 11 -17 10 -46 -4 -37 -20 -84 -14 -111 13 -38 38 -31 121 13
156 31 25 64 27 103 6 25 -12 31 -12 41 0 25 31 -88 59 -146 35z" />
        <path
            d="M2040 2280 c0 -109 2 -130 15 -130 12 0 15 17 15 90 0 53 4 90 10 90
5 0 26 -25 46 -55 20 -30 38 -55 39 -55 1 0 19 25 39 55 20 30 41 55 46 55 6
0 10 -37 10 -90 0 -73 3 -90 15 -90 13 0 15 21 15 130 0 121 -1 130 -19 130
-12 0 -34 -23 -61 -65 -23 -36 -44 -65 -45 -65 -1 0 -22 29 -45 65 -27 42 -49
65 -61 65 -18 0 -19 -9 -19 -130z" />
        <path
            d="M2428 2394 c-37 -19 -61 -69 -61 -122 0 -103 120 -164 209 -106 19
13 22 20 13 30 -9 11 -15 11 -32 -1 -25 -17 -80 -20 -108 -5 -21 12 -49 60
-49 85 0 31 31 82 56 94 33 15 59 14 93 -4 25 -12 31 -12 41 0 29 35 -106 60
-162 29z" />
        <path
            d="M2823 2287 c-29 -68 -53 -126 -53 -130 0 -21 33 -3 43 23 11 29 13
30 82 30 69 0 71 -1 82 -30 7 -20 18 -30 32 -30 18 0 16 9 -31 113 -27 61 -53
120 -55 130 -3 9 -15 17 -27 17 -17 0 -30 -21 -73 -123z" />
        <path
            d="M3070 2390 c0 -17 7 -20 45 -20 l45 0 0 -110 c0 -90 3 -110 15 -110
11 0 15 21 17 108 l3 107 43 3 c34 3 42 7 42 23 0 18 -8 19 -105 19 -98 0
-105 -1 -105 -20z" />
    </g>
</svg>